<?xml version="1.0" standalone="no"?><!DOCTYPE svg PUBLIC "-//W3C//DTD SVG 1.1//EN" "http://www.w3.org/Graphics/SVG/1.1/DTD/svg11.dtd"><svg t="1641783499345" class="icon" viewBox="0 0 1024 1024" version="1.1" xmlns="http://www.w3.org/2000/svg" p-id="2315" xmlns:xlink="http://www.w3.org/1999/xlink" width="200" height="200"><defs><style type="text/css"></style></defs><path d="M950.857143 933.302857a17.554286 17.554286 0 0 1-17.554286 17.554286H90.697143a17.554286 17.554286 0 0 1-17.554286-17.554286V279.771429a17.554286 17.554286 0 0 1 2.779429-9.435429l120.978285-189.074286A17.554286 17.554286 0 0 1 211.675429 73.142857h628.297142a17.554286 17.554286 0 0 1 15.945143 10.093714l93.257143 198.948572A17.554286 17.554286 0 0 1 950.857143 289.645714v643.657143z m-70.217143-275.090286H143.36v222.427429h737.28V658.212571z m-111.908571 74.752a35.84 35.84 0 0 1 0 71.606858h-1.462858a35.84 35.84 0 0 1-6.436571-71.021715l6.436571-0.585143h1.462858z m111.908571-368.128H143.36v221.110858h737.28V364.836571zM768.731429 438.857143a35.84 35.84 0 1 1 0 71.68h-1.462858a35.84 35.84 0 1 1 0-71.68h1.462858z m37.814857-295.497143h-566.125715L145.042286 292.571429h731.574857l-69.997714-149.211429z" fill="#A6AAAE" p-id="2316"></path></svg>