<?xml version="1.0" standalone="no"?><!DOCTYPE svg PUBLIC "-//W3C//DTD SVG 1.1//EN" "http://www.w3.org/Graphics/SVG/1.1/DTD/svg11.dtd"><svg t="1639730756953" class="icon" viewBox="0 0 1024 1024" version="1.1" xmlns="http://www.w3.org/2000/svg" p-id="1424" xmlns:xlink="http://www.w3.org/1999/xlink" width="200" height="200"><defs><style type="text/css"></style></defs><path d="M968.996571 294.912V109.568a54.345143 54.345143 0 0 0-54.125714-54.564571H422.326857L412.818286 32.914286A54.052571 54.052571 0 0 0 363.300571 0H54.125714A54.345143 54.345143 0 0 0 0 54.491429v856.576c0 30.061714 24.283429 54.564571 54.125714 54.564571h914.578286a54.345143 54.345143 0 0 0 54.125714-54.564571V349.403429c0-29.988571-24.137143-54.345143-53.833143-54.491429z m-72.338285 0H478.500571l-35.474285-167.570286h453.632v167.570286z m53.833143 598.381714H72.265143V72.265143H351.085714l12.8 29.988571 50.029715 236.324572c0.219429 1.316571 1.024 2.340571 1.462857 3.584a35.108571 35.108571 0 0 0 6.509714 11.776c1.024 1.316571 1.974857 2.56 3.218286 3.657143 2.194286 1.974857 4.681143 3.510857 7.314285 4.900571 1.170286 0.731429 2.340571 1.536 3.657143 2.048a35.693714 35.693714 0 0 0 13.092572 2.706286H950.491429v526.043428z" p-id="1425"></path></svg>