<?xml version="1.0" standalone="no"?><!DOCTYPE svg PUBLIC "-//W3C//DTD SVG 1.1//EN" "http://www.w3.org/Graphics/SVG/1.1/DTD/svg11.dtd"><svg t="1639730765879" class="icon" viewBox="0 0 1024 1024" version="1.1" xmlns="http://www.w3.org/2000/svg" p-id="1551" xmlns:xlink="http://www.w3.org/1999/xlink" width="200" height="200"><defs><style type="text/css"></style></defs><path d="M967.681463 0H56.321463A56.32 56.32 0 0 0 0.001463 56.758857v690.761143a56.758857 56.758857 0 0 0 56.32 56.32h911.36a56.758857 56.758857 0 0 0 56.32-56.32V56.758857A56.758857 56.758857 0 0 0 967.681463 0z m-16.164572 731.721143H72.559177v-658.285714h878.957714v658.285714zM350.721463 918.674286h311.442286c14.262857 0 21.357714 7.094857 21.357714 21.284571v43.154286c0 14.189714-7.094857 21.211429-21.357714 21.211428H350.721463c-14.189714 0-21.357714-7.021714-21.357714-21.211428v-43.154286c0-14.189714 7.168-21.357714 21.357714-21.357714z" p-id="1552"></path><path d="M439.078034 382.756571l124.562286 137.801143 11.483429 15.798857 228.717714-166.034285-47.323429-65.243429-168.594285 122.002286-142.921143-157.842286-55.881143 50.322286L197.487177 474.477714l50.834286 62.683429 190.756571-154.404572z" p-id="1553"></path></svg>