<svg height="16" viewBox="0 0 16 16" width="16" xmlns="http://www.w3.org/2000/svg"><g fill="none" opacity=".65"><path d="m0 0h16v16h-16z" fill="#000"/><g fill="#fff"><path d="m14.64.4h-8.952c-.44 0-.8.36-.8.8s.36.8.8.8h8.152v12h-8.152c-.44 0-.8.36-.8.8s.36.8.8.8h8.952c.44 0 .8-.36.8-.8v-13.6c0-.44-.36-.8-.8-.8z"/><path d="m4.944 10.432-1.648-1.632h6.176c.44 0 .8-.36.8-.8s-.36-.8-.8-.8h-6.168l1.64-1.624c.312-.312.32-.816.008-1.128-.312-.32-.816-.32-1.136-.016l-3.016 2.992c-.152.152-.24.352-.24.568s.088.416.24.568l3.024 3c.31220993.3097423.81579007.3097423 1.128 0 .1487273-.1505354.23146433-.3540501.22996356-.5656593-.00150078-.2116092-.08711607-.41393-.23796356-.5623407z"/></g></g></svg>