<svg height="200" viewBox="0 0 1024 1024" width="200" xmlns="http://www.w3.org/2000/svg"><g fill="#a6aaae"><path d="m512 0a512 512 0 1 1 0 1024 512 512 0 0 1 0-1024zm0 73.142857a438.857143 438.857143 0 1 0 0 877.714286 438.857143 438.857143 0 0 0 0-877.714286z"/><path d="m512 0c121.197714 0 219.428571 229.229714 219.428571 512s-98.230857 512-219.428571 512-219.428571-229.229714-219.428571-512 98.230857-512 219.428571-512zm0 73.142857c-22.674286 0-57.270857 34.157714-87.917714 105.618286-36.717715 85.723428-58.368 205.019428-58.368 333.238857s21.650286 247.515429 58.368 333.238857c30.646857 71.460572 65.243428 105.618286 87.917714 105.618286s57.270857-34.157714 87.917714-105.618286c36.717715-85.723428 58.368-205.019428 58.368-333.238857s-21.650286-247.515429-58.368-333.238857c-30.646857-71.460572-65.243428-105.618286-87.917714-105.618286z"/><path d="m73.142857 292.571429h877.714286v73.142857h-877.714286zm0 365.714285h877.714286v73.142857h-877.714286z"/></g></svg>