<?xml version="1.0" standalone="no"?><!DOCTYPE svg PUBLIC "-//W3C//DTD SVG 1.1//EN" "http://www.w3.org/Graphics/SVG/1.1/DTD/svg11.dtd"><svg t="1641783496447" class="icon" viewBox="0 0 1024 1024" version="1.1" xmlns="http://www.w3.org/2000/svg" p-id="2188" xmlns:xlink="http://www.w3.org/1999/xlink" width="200" height="200"><defs><style type="text/css"></style></defs><path d="M915.748571 73.142857a35.108571 35.108571 0 0 1 35.108572 35.108572v807.497142a35.108571 35.108571 0 0 1-35.108572 35.108572H108.251429a35.108571 35.108571 0 0 1-35.108572-35.108572V108.251429A35.108571 35.108571 0 0 1 108.251429 73.142857z m-43.885714 78.994286H152.137143v719.725714h719.725714V152.137143zM384.731429 231.131429a8.777143 8.777143 0 0 1 8.777142 8.777142v242.468572a121.270857 121.270857 0 0 0-2.340571-0.731429l2.340571 0.731429A114.102857 114.102857 0 0 1 358.4 705.097143l23.844571-2.486857 11.264-2.998857v84.48a8.777143 8.777143 0 0 1-8.777142 8.777142h-52.662858a8.777143 8.777143 0 0 1-8.777142-8.777142V699.611429a114.102857 114.102857 0 0 1 0-217.234286V239.908571a8.777143 8.777143 0 0 1 8.777142-8.777142zM665.6 547.108571c12.288 0 24.064-1.901714 35.108571-5.485714v242.468572a8.777143 8.777143 0 0 1-8.777142 8.777142h-52.662858a8.777143 8.777143 0 0 1-8.777142-8.777142V541.622857l-9.654858-3.657143a114.102857 114.102857 0 0 1 9.654858-213.577143V239.908571a8.777143 8.777143 0 0 1 8.777142-8.777142h52.662858a8.777143 8.777143 0 0 1 8.777142 8.777142v84.48a114.102857 114.102857 0 0 1-47.177142 222.134858z m-306.395429 4.534858h-1.243428l-2.56 0.073142-2.56 0.219429c-0.219429 0.146286-0.365714 0.146286-0.585143 0.146286l-2.413714 0.365714-0.585143 0.146286a11.483429 11.483429 0 0 0-1.828572 0.438857l-0.658285 0.219428-2.267429 0.731429c-0.804571 0.219429-1.462857 0.585143-2.194286 0.950857l-0.731428 0.292572-1.755429 0.877714c-0.073143 0.146286-0.292571 0.146286-0.365714 0.219428l-2.121143 1.170286-0.438857 0.365714-1.536 1.097143-0.585143 0.292572a21.065143 21.065143 0 0 0-1.828571 1.462857l-1.755429 1.536-2.852571 2.925714-0.731429 0.877714-0.365714 0.438858-1.097143 1.536-0.292571 0.585142-1.389715 1.974858-1.024 2.121142a39.716571 39.716571 0 0 0 0 36.571429c0.292571 0.731429 0.658286 1.316571 1.024 1.974857v0.146286l1.462857 2.194286a9.216 9.216 0 0 0 1.316572 1.901714l0.365714 0.438857a21.942857 21.942857 0 0 0 1.462857 1.755429l0.365715 0.292571 1.755428 1.755429a21.942857 21.942857 0 0 0 1.755429 1.536l1.901714 1.462857 0.512 0.292571c0.438857 0.438857 0.950857 0.731429 1.536 1.097143 1.097143 0.731429 1.901714 1.243429 2.56 1.536 0.073143 0.146286 0.292571 0.146286 0.365714 0.219429l1.755429 0.877714c1.462857 0.658286 2.121143 0.950857 2.925714 1.170286 0.731429 0.365714 1.462857 0.585143 2.267429 0.804571l0.658285 0.219429 1.901715 0.438857 0.512 0.146285c0.731429 0.219429 1.609143 0.292571 2.413714 0.438858a37.888 37.888 0 0 0 5.705143 0.438857l2.486857-0.146286 2.706286-0.219429c0.219429-0.146286 0.292571-0.146286 0.512-0.146285 0.731429-0.073143 1.609143-0.146286 2.413714-0.365715l0.292571-0.073142a13.897143 13.897143 0 0 0 2.121143-0.512l0.658286-0.219429a18.870857 18.870857 0 0 0 2.340571-0.731429l2.194286-0.950857c1.316571-0.585143 1.828571-0.804571 2.340572-1.170285l0.438857-0.219429c0.804571-0.438857 1.462857-0.731429 2.121143-1.243429l1.974857-1.389714 0.512-0.365714a21.065143 21.065143 0 0 0 1.901714-1.389714l1.755429-1.536 2.121142-2.121143c0.512-0.512 0.950857-1.024 1.462858-1.755429l1.462857-1.974857 0.365714-0.512 1.316571-1.974857 0.073143-0.146286 1.097143-1.901714a39.716571 39.716571 0 0 0 0-36.644572c-0.365714-0.731429-0.658286-1.389714-1.097143-1.974857-0.146286 0-0.146286-0.146286-0.146285-0.146285l-1.316572-1.974858-0.292571-0.585142c-0.365714-0.512-0.658286-1.024-1.097143-1.462858a23.259429 23.259429 0 0 0-1.901714-2.194285l-0.292572-0.365715-2.633143-2.56-0.877714-0.731428c-0.512-0.438857-1.170286-1.024-1.901714-1.462857l-2.048-1.389715-0.438857-0.365714a20.406857 20.406857 0 0 0-2.121143-1.170286c-0.073143-0.146286-0.292571-0.146286-0.438857-0.219428a13.165714 13.165714 0 0 0-1.755429-0.877714l-0.585143-0.365715-2.194286-0.877714a18.870857 18.870857 0 0 0-2.340571-0.731429l-0.658286-0.219428c-0.585143-0.146286-1.243429-0.365714-1.901714-0.438857L364.982857 552.228571l-1.243428-0.146285c-0.219429-0.146286-0.365714-0.146286-0.585143-0.146286l-1.974857-0.219429c-1.462857-0.146286-2.267429-0.146286-3.145143-0.146285z m307.2-157.988572h-1.243428l-2.486857 0.073143-2.706286 0.219429c-0.146286 0.146286-0.292571 0.146286-0.512 0.146285-0.731429 0.073143-1.682286 0.219429-2.413714 0.438857h-0.292572a13.897143 13.897143 0 0 0-2.121143 0.512l-0.658285 0.219429-2.340572 0.731429-2.194285 0.950857-2.340572 1.170285-0.438857 0.219429c-0.804571 0.438857-1.462857 0.731429-2.121143 1.243429l-1.974857 1.389714-0.585143 0.365714a21.065143 21.065143 0 0 0-1.828571 1.389714c-0.658286 0.512-1.243429 0.950857-1.755429 1.536l-2.048 2.121143c-0.585143 0.512-1.024 1.024-1.536 1.755429l-1.462857 1.901714-0.365714 0.585143-1.316572 1.974857-1.024 2.121143a39.716571 39.716571 0 0 0 0 36.571429c0.292571 0.731429 0.585143 1.389714 1.024 1.974857V453.485714l1.389715 1.974857 0.292571 0.585143c0.365714 0.512 0.658286 1.024 1.097143 1.462857 0.731429 1.024 1.316571 1.682286 1.901714 2.194286l0.292572 0.365714 2.633142 2.56 0.877715 0.731429 1.828571 1.462857 2.121143 1.389714 0.438857 0.365715 2.121143 1.170285c0.073143 0.146286 0.292571 0.146286 0.438857 0.219429a13.165714 13.165714 0 0 0 1.755429 0.877714l0.585143 0.365715 2.194285 0.877714 2.340572 0.731428 0.658285 0.219429c0.585143 0.146286 1.243429 0.365714 1.901715 0.438857l1.682285 0.365714 1.243429 0.146286a1.024 1.024 0 0 0 0.585143 0.146286l1.974857 0.219428a37.888 37.888 0 0 0 3.145143 0.146286l2.56-0.146286 2.633143-0.219428c0.219429-0.146286 0.292571-0.146286 0.512-0.146286l2.413714-0.365714 0.585143-0.146286a11.483429 11.483429 0 0 0 1.828571-0.438857l0.658286-0.219429 2.267429-0.731428c0.804571-0.219429 1.462857-0.585143 2.194285-0.950857l0.731429-0.292572 1.755428-0.877714c0.073143-0.146286 0.292571-0.146286 0.365715-0.219429l2.121143-1.170285 0.438857-0.365715 1.536-1.097142 0.585143-0.292572a21.065143 21.065143 0 0 0 1.828571-1.462857c0.658286-0.512 1.243429-0.950857 1.755429-1.536l2.852571-2.925714 0.731429-0.877715 0.365714-0.438857 1.097143-1.536 0.365714-0.585143 1.316571-1.974857 1.024-2.121143a39.716571 39.716571 0 0 0-1.024-38.546285V412.525714l-1.462857-2.194285c-0.585143-0.877714-0.877714-1.462857-1.316571-1.901715l-0.365714-0.365714a21.942857 21.942857 0 0 0-1.462858-1.755429l-0.365714-0.365714-1.755428-1.755428a21.942857 21.942857 0 0 0-1.755429-1.536l-1.828571-1.462858-0.585143-0.292571c-0.438857-0.438857-1.024-0.731429-1.536-1.097143a19.382857 19.382857 0 0 0-2.486857-1.536c-0.146286-0.146286-0.365714-0.146286-0.512-0.219428l-1.682286-0.877715c-1.462857-0.658286-2.121143-0.950857-2.925714-1.170285a18.870857 18.870857 0 0 0-2.267429-0.804572l-0.658286-0.219428-1.828571-0.438858-0.585143-0.073142c-0.731429-0.219429-1.682286-0.365714-2.413714-0.438858a14.336 14.336 0 0 0-2.56-0.365714c-1.462857-0.146286-2.267429-0.146286-3.145143-0.146286z" fill="#A6AAAE" p-id="2189"></path></svg>