<?xml version="1.0" standalone="no"?><!DOCTYPE svg PUBLIC "-//W3C//DTD SVG 1.1//EN" "http://www.w3.org/Graphics/SVG/1.1/DTD/svg11.dtd"><svg t="1641783484272" class="icon" viewBox="0 0 1024 1024" version="1.1" xmlns="http://www.w3.org/2000/svg" p-id="1676" xmlns:xlink="http://www.w3.org/1999/xlink" width="200" height="200"><defs><style type="text/css"></style></defs><path d="M831.456427 335.389051C831.456427 147.778745 684.262365 0 504.252944 0 324.316608 0 177.122547 147.778745 177.122547 335.389051c0 125.049176 65.411462 238.770109 169.046606 295.557491C204.310328 687.807009 100.748269 818.556848 73.487403 972.036257c0 11.401328 0 22.72957 5.481407 28.430234 0 17.028906 5.408322 22.72957 16.298052 22.729569h5.481407a41.147099 41.147099 0 0 0 38.150596-28.430233A377.559346 377.559346 0 0 1 498.844622 682.106345h5.408322c180.009421-5.627578 321.795161-159.106987 327.203483-346.717294z m-588.922418 0C242.534009 187.610306 357.058882 68.188709 498.844622 68.188709c141.78574 0 256.310613 125.049176 256.310613 267.200342 0 147.778745-114.524873 261.499679-250.902291 267.127258h-10.889729C357.058882 596.88873 248.015416 483.167797 242.534009 335.462137z m512.621226 346.717294c0 11.401328 5.408322 22.72957 10.88973 28.503319a40.781672 40.781672 0 0 0 27.260866 11.328242h179.936336c21.779459 0 38.150596-17.101991 38.150596-39.831561 0-22.656484-16.371137-39.758475-38.150596-39.758475h-179.936336c-21.852544 0-38.150596 17.028906-38.150596 39.758475z m218.086932 108.02027H678.780958c-21.779459 0-38.150596 17.028906-38.150596 39.831561 0 22.656484 16.371137 39.758475 38.150596 39.758475h294.461209c21.779459 0 38.150596-17.028906 38.150596-39.758475-5.408322-22.802655-21.779459-39.831561-38.150596-39.831561z m0 153.479409H684.262365c-21.852544 0-38.223681 17.028906-38.223681 39.831561 0 22.656484 16.371137 39.758475 38.223681 39.758475h288.979802c10.962815 0 21.779459-5.700664 27.260866-11.401327a44.435943 44.435943 0 0 0 10.962815-28.357148c-5.481407-22.802655-21.92563-39.831561-38.223681-39.831561z" fill="#A6AAAE" p-id="1677"></path></svg>