<?xml version="1.0" standalone="no"?><!DOCTYPE svg PUBLIC "-//W3C//DTD SVG 1.1//EN" "http://www.w3.org/Graphics/SVG/1.1/DTD/svg11.dtd"><svg t="1641783488005" class="icon" viewBox="0 0 1024 1024" version="1.1" xmlns="http://www.w3.org/2000/svg" p-id="1803" xmlns:xlink="http://www.w3.org/1999/xlink" width="200" height="200"><defs><style type="text/css"></style></defs><path d="M880.347429 73.142857H143.652571A70.509714 70.509714 0 0 0 73.142857 143.652571v736.694858c0 38.985143 31.524571 70.509714 70.509714 70.509714h736.694858a70.509714 70.509714 0 0 0 70.509714-70.509714V143.652571A70.509714 70.509714 0 0 0 880.347429 73.142857z m0 807.204572H143.652571V143.652571h736.694858v736.694858z" fill="#A6AAAE" p-id="1804"></path><path d="M348.745143 735.378286h305.590857a35.254857 35.254857 0 1 0 0-70.582857H348.745143a35.254857 35.254857 0 1 0 0 70.582857zM348.745143 359.131429h305.590857a35.254857 35.254857 0 1 0 0-70.509715H348.745143a35.254857 35.254857 0 1 0 0 70.582857zM348.745143 547.254857h305.590857a35.254857 35.254857 0 1 0 0-70.509714H348.745143a35.254857 35.254857 0 1 0 0 70.509714z" fill="#A6AAAE" p-id="1805"></path></svg>