<?xml version="1.0" standalone="no"?><!DOCTYPE svg PUBLIC "-//W3C//DTD SVG 1.1//EN" "http://www.w3.org/Graphics/SVG/1.1/DTD/svg11.dtd"><svg t="1641783490683" class="icon" viewBox="0 0 1024 1024" version="1.1" xmlns="http://www.w3.org/2000/svg" p-id="1931" xmlns:xlink="http://www.w3.org/1999/xlink" width="200" height="200"><defs><style type="text/css"></style></defs><path d="M400.603429 65.243429a73.142857 73.142857 0 0 1 73.142857 73.142857v254.244571a73.142857 73.142857 0 0 1-73.142857 73.142857H146.285714a73.142857 73.142857 0 0 1-73.142857-73.142857V138.386286a73.142857 73.142857 0 0 1 73.142857-73.142857h254.317715z m0 73.142857H146.285714v254.244571h254.317715V138.386286zM400.603429 532.48a73.142857 73.142857 0 0 1 73.142857 73.142857v254.317714a73.142857 73.142857 0 0 1-73.142857 73.142858H146.285714a73.142857 73.142857 0 0 1-73.142857-73.142858V605.696a73.142857 73.142857 0 0 1 73.142857-73.142857h254.317715z m0 73.142857H146.285714v254.317714h254.317715V605.696zM867.913143 532.48a73.142857 73.142857 0 0 1 73.142857 73.142857v254.317714a73.142857 73.142857 0 0 1-73.142857 73.142858H613.595429a73.142857 73.142857 0 0 1-73.142858-73.142858V605.696a73.142857 73.142857 0 0 1 73.142858-73.142857h254.317714z m0 73.142857H613.595429v254.317714h254.317714V605.696z" fill="#A6AAAE" p-id="1932"></path><path d="M689.071047 34.010701a73.142857 73.142857 0 0 1 103.43962 0l179.778061 179.77806a73.142857 73.142857 0 0 1 0 103.439621L792.458948 497.058162a73.142857 73.142857 0 0 1-103.439621 0L509.241267 317.280102a73.142857 73.142857 0 0 1 0-103.439621l179.82978-179.82978z m51.71981 51.71981L560.961077 265.560291l179.77806 179.778061 179.829781-179.829781L740.790857 85.730511z" fill="#A6AAAE" p-id="1933"></path></svg>